<svg data-v-423bf9ae="" xmlns="http://www.w3.org/2000/svg" viewBox="0 0 227.24953167472378 60" class="font"><!----><!----><!----><g data-v-423bf9ae="" id="1d2cbef2-4055-475e-98ff-e06ccb1416f8" fill="white" transform="matrix(3.6429869795382155,0,0,3.6429869795382155,-1.5300570004019534,-9.653915366361424)"><path d="M5.03 10.60L5.03 10.60L5.03 10.60Q5.03 12.42 3.63 13.89L3.63 13.89L3.63 13.89Q3.33 14.20 2.81 14.20L2.81 14.20L2.81 14.20Q1.97 14.20 1.43 13.78L1.43 13.78L1.43 13.78Q0.42 13.01 0.42 10.70L0.42 10.70L0.42 10.70Q0.42 9.17 1.04 7.48L1.04 7.48L1.04 7.48Q1.65 5.78 2.60 4.38L2.60 4.38L2.60 4.38Q2.74 4.21 2.81 4.21L2.81 4.21L2.81 4.21Q2.88 4.21 2.98 4.26L2.98 4.26L2.98 4.26Q3.07 4.30 3.17 4.35L3.17 4.35L3.17 4.35Q3.28 4.41 3.32 4.42L3.32 4.42L3.32 4.00L3.32 4.00Q3.23 3.84 3.23 3.71L3.23 3.71L3.23 3.71Q3.23 3.58 3.35 3.58L3.35 3.58L3.35 3.58Q3.46 3.58 3.58 3.63L3.58 3.63L3.58 3.63Q4.82 4.05 4.82 5.64L4.82 5.64L4.82 5.64Q4.82 6.55 4.35 7.50L4.35 7.50L4.35 7.50Q4.23 7.76 4.13 7.76L4.13 7.76L4.13 7.76Q4.06 7.76 3.92 7.53L3.92 7.53L3.92 7.53Q3.47 6.61 3.35 5.14L3.35 5.14L3.35 5.14Q3.14 5.14 3.04 5.29L3.04 5.29L3.04 5.29Q2.94 5.45 2.70 6.10L2.70 6.10L2.70 6.10Q1.82 8.48 1.82 10.99L1.82 10.99L1.82 10.99Q1.82 12.38 2.13 13.36L2.13 13.36L2.13 13.36Q3.04 12.50 3.70 11.23L3.70 11.23L3.70 11.23Q4.37 9.97 4.69 8.64L4.69 8.64L4.69 8.64Q5.03 9.74 5.03 10.60ZM8.69 11.89L8.69 11.89L8.69 11.89Q7.55 13.94 6.94 13.94L6.94 13.94L6.94 13.94Q6.51 13.94 6.16 13.41L6.16 13.41L6.16 13.41Q6.06 13.27 5.95 12.97L5.95 12.97L5.95 12.97Q5.84 12.67 5.68 12.42L5.68 12.42L5.68 12.42Q5.52 12.17 5.52 11.74L5.52 11.74L5.52 11.74Q5.52 11.31 5.68 10.98L5.68 10.98L5.68 10.98Q6.83 8.71 8.11 7.87L8.11 7.87L8.11 7.87Q8.27 7.74 8.50 7.74L8.50 7.74L8.50 7.74Q8.72 7.74 9.06 7.99L9.06 7.99L9.06 7.99Q9.25 8.19 9.30 8.33L9.30 8.33L9.30 8.33Q9.37 8.64 9.37 8.71L9.37 8.71L9.37 8.71Q9.86 8.88 9.86 9.32L9.86 9.32L9.86 9.32Q9.86 9.63 9.69 10.72L9.69 10.72L9.69 10.72Q9.52 11.80 9.49 12.33L9.49 12.33L9.49 12.33Q9.49 12.63 9.69 12.63L9.69 12.63L9.69 12.63Q9.91 12.63 10.49 11.84L10.49 11.84L10.49 11.84Q11.07 11.06 11.16 11.06L11.16 11.06L11.16 11.06Q11.30 11.06 11.30 11.52L11.30 11.52L11.27 12.21L11.27 12.21Q11.27 12.60 10.92 13.28L10.92 13.28L10.92 13.28Q10.57 13.96 10.02 13.96L10.02 13.96L10.02 13.96Q9.69 13.96 9.49 13.73L9.49 13.73L9.49 13.73Q9.42 13.66 9.28 13.45L9.28 13.45L9.28 13.45Q8.85 12.82 8.69 11.89ZM8.82 8.65L8.82 8.65L8.82 8.65Q7.06 10.26 6.58 12.33L6.58 12.33L6.58 12.33Q7.99 11.12 8.82 8.65ZM13.38 7.57L13.38 7.57L14.49 7.52L14.49 7.52Q14.92 7.52 14.92 8.08L14.92 8.08L14.92 8.08Q14.92 8.36 14.74 8.50L14.74 8.50L14.74 8.50Q14.29 8.90 13.20 9.06L13.20 9.06L13.20 9.06Q13.06 10.39 13.06 11.27L13.06 11.27L13.06 11.27Q13.06 12.15 13.19 12.15L13.19 12.15L13.19 12.15Q13.27 12.15 13.78 11.70L13.78 11.70L13.78 11.70Q14.28 11.26 14.34 11.26L14.34 11.26L14.34 11.26Q14.57 11.26 14.57 11.98L14.57 11.98L14.57 11.98Q14.57 12.70 14.31 13.40L14.31 13.40L14.31 13.40Q14.04 14.10 13.55 14.10L13.55 14.10L13.55 14.10Q13.34 14.10 13.13 13.95L13.13 13.95L13.13 13.95Q12.92 13.80 12.82 13.66L12.82 13.66L12.82 13.66Q12.71 13.51 12.52 13.22L12.52 13.22L12.52 13.22Q12.33 12.92 12.29 12.87L12.29 12.87L12.29 12.87Q11.91 12.35 11.88 11.84L11.88 11.84L11.88 11.84Q11.84 11.33 11.84 10.64L11.84 10.64L11.84 10.64Q11.84 9.95 11.93 9.16L11.93 9.16L11.93 9.16Q11.49 9.14 11.21 8.85L11.21 8.85L11.21 8.85Q10.92 8.55 10.76 8.14L10.76 8.14L10.76 8.14Q10.60 7.73 10.60 7.67L10.60 7.67L10.60 7.67Q10.60 7.49 10.81 7.49L10.81 7.49L12.15 7.57L12.15 7.57Q12.22 7.14 12.38 6.37L12.38 6.37L12.38 6.37Q12.61 5.25 12.61 5.07L12.61 5.07L12.59 4.80L12.59 4.80Q12.59 4.58 12.84 4.58L12.84 4.58L12.84 4.58Q13.09 4.58 13.45 4.83L13.45 4.83L13.45 4.83Q13.82 5.08 13.82 5.31L13.82 5.31L13.82 5.31Q13.82 5.40 13.72 5.70L13.72 5.70L13.72 5.70Q13.59 6.15 13.38 7.57ZM18.62 11.47L18.62 11.47L18.62 11.47Q18.62 12.36 18.05 13.20L18.05 13.20L18.05 13.20Q17.47 14.04 16.59 14.04L16.59 14.04L16.59 14.04Q15.89 14.04 15.48 13.20L15.48 13.20L15.48 13.20Q15.06 12.35 15.06 11.40L15.06 11.40L15.06 11.40Q15.06 10.46 15.58 9.34L15.58 9.34L15.58 9.34Q16.09 8.22 16.91 7.55L16.91 7.55L16.91 7.55Q17.09 7.38 17.37 7.38L17.37 7.38L17.37 7.38Q17.65 7.38 18.03 7.70L18.03 7.70L18.03 7.70Q18.23 7.88 18.23 8.46L18.23 8.46L18.23 8.46Q18.23 9.03 17.89 10.25L17.89 10.25L17.89 10.25Q17.81 10.56 17.67 10.56L17.67 10.56L17.67 10.56Q17.40 10.56 17.26 9.06L17.26 9.06L17.26 9.06Q17.25 8.82 17.23 8.76L17.23 8.76L17.23 8.76Q16.55 9.52 16.16 10.48L16.16 10.48L16.16 10.48Q15.78 11.44 15.78 12.33L15.78 12.33L15.78 12.33Q15.78 12.80 16.09 12.80L16.09 12.80L16.09 12.80Q16.62 12.80 17.77 11.84L17.77 11.84L17.77 11.84Q17.98 11.66 18.07 11.57L18.07 11.57L18.07 11.57Q18.17 11.48 18.37 11.30L18.37 11.30L18.37 11.30Q18.56 11.13 18.59 11.10L18.59 11.10L18.59 11.10Q18.62 11.23 18.62 11.47ZM23.49 11.77L23.49 11.77L23.49 11.77Q23.49 12.88 23.09 13.47L23.09 13.47L23.09 13.47Q22.78 13.86 22.55 13.86L22.55 13.86L22.55 13.86Q22.33 13.86 22.11 13.64L22.11 13.64L22.11 13.64Q21.32 12.73 21.32 11.45L21.32 11.45L21.32 11.45Q21.32 11.03 21.42 10.58L21.42 10.58L21.42 10.58Q21.59 9.81 21.59 9.59L21.59 9.59L21.59 9.59Q21.59 9.37 21.56 9.37L21.56 9.37L21.56 9.37Q21.48 9.37 20.45 13.22L20.45 13.22L20.45 13.22Q20.33 13.61 20.19 13.61L20.19 13.61L20.19 13.61Q19.81 13.61 19.29 12.31L19.29 12.31L19.29 12.31Q19.01 11.69 19.01 10.82L19.01 10.82L19.01 10.82Q19.01 9.84 19.13 9.17L19.13 9.17L19.13 9.17Q19.25 8.50 19.28 8.34L19.28 8.34L19.28 8.34Q19.31 8.18 19.38 7.82L19.38 7.82L19.38 7.82Q19.46 7.46 19.49 7.35L19.49 7.35L19.49 7.35Q19.66 6.65 19.71 6.36L19.71 6.36L19.71 6.36Q19.36 6.36 19.36 6.15L19.36 6.15L19.36 6.15Q19.36 6.05 19.45 5.94L19.45 5.94L19.45 5.94Q20.22 4.72 20.54 3.78L20.54 3.78L20.54 3.78Q20.59 3.54 20.76 3.54L20.76 3.54L20.76 3.54Q20.99 3.54 21.10 3.98L21.10 3.98L21.10 3.98Q21.21 4.41 21.21 4.73L21.21 4.73L21.21 4.73Q21.21 5.54 20.68 6.03L20.68 6.03L20.68 6.03Q20.05 9.94 20.05 10.14L20.05 10.14L20.05 10.14Q20.05 10.33 20.10 10.33L20.10 10.33L20.10 10.33Q20.16 10.33 20.31 10.07L20.31 10.07L20.31 10.07Q20.45 9.81 20.78 9.08L20.78 9.08L20.78 9.08Q21.10 8.34 21.31 7.99L21.31 7.99L21.31 7.99Q21.62 7.48 22.09 7.48L22.09 7.48L22.09 7.48Q22.85 7.48 22.85 8.89L22.85 8.89L22.85 8.89Q22.85 10.04 22.32 11.79L22.32 11.79L22.32 11.79Q22.30 11.84 22.30 11.90L22.30 11.90L22.30 11.90Q22.30 12.05 22.45 12.05L22.45 12.05L22.45 12.05Q22.60 12.05 22.97 11.65L22.97 11.65L22.97 11.65Q23.34 11.24 23.41 11.24L23.41 11.24L23.41 11.24Q23.49 11.24 23.49 11.77ZM28.71 7.57L28.71 7.57L29.82 7.52L29.82 7.52Q30.25 7.52 30.25 8.08L30.25 8.08L30.25 8.08Q30.25 8.36 30.07 8.50L30.07 8.50L30.07 8.50Q29.62 8.90 28.53 9.06L28.53 9.06L28.53 9.06Q28.39 10.39 28.39 11.27L28.39 11.27L28.39 11.27Q28.39 12.15 28.52 12.15L28.52 12.15L28.52 12.15Q28.60 12.15 29.11 11.70L29.11 11.70L29.11 11.70Q29.61 11.26 29.67 11.26L29.67 11.26L29.67 11.26Q29.90 11.26 29.90 11.98L29.90 11.98L29.90 11.98Q29.90 12.70 29.64 13.40L29.64 13.40L29.64 13.40Q29.37 14.10 28.88 14.10L28.88 14.10L28.88 14.10Q28.67 14.10 28.46 13.95L28.46 13.95L28.46 13.95Q28.25 13.80 28.15 13.66L28.15 13.66L28.15 13.66Q28.04 13.51 27.85 13.22L27.85 13.22L27.85 13.22Q27.66 12.92 27.62 12.87L27.62 12.87L27.62 12.87Q27.24 12.35 27.21 11.84L27.21 11.84L27.21 11.84Q27.17 11.33 27.17 10.64L27.17 10.64L27.17 10.64Q27.17 9.95 27.26 9.16L27.26 9.16L27.26 9.16Q26.82 9.14 26.54 8.85L26.54 8.85L26.54 8.85Q26.25 8.55 26.09 8.14L26.09 8.14L26.09 8.14Q25.93 7.73 25.93 7.67L25.93 7.67L25.93 7.67Q25.93 7.49 26.14 7.49L26.14 7.49L27.48 7.57L27.48 7.57Q27.55 7.14 27.71 6.37L27.71 6.37L27.71 6.37Q27.94 5.25 27.94 5.07L27.94 5.07L27.92 4.80L27.92 4.80Q27.92 4.58 28.17 4.58L28.17 4.58L28.17 4.58Q28.42 4.58 28.78 4.83L28.78 4.83L28.78 4.83Q29.15 5.08 29.15 5.31L29.15 5.31L29.15 5.31Q29.15 5.40 29.05 5.70L29.05 5.70L29.05 5.70Q28.92 6.15 28.71 7.57ZM34.94 11.77L34.94 11.77L34.94 11.77Q34.94 12.88 34.54 13.47L34.54 13.47L34.54 13.47Q34.23 13.86 34.01 13.86L34.01 13.86L34.01 13.86Q33.78 13.86 33.56 13.64L33.56 13.64L33.56 13.64Q32.77 12.73 32.77 11.45L32.77 11.45L32.77 11.45Q32.77 11.03 32.87 10.58L32.87 10.58L32.87 10.58Q33.04 9.81 33.04 9.59L33.04 9.59L33.04 9.59Q33.04 9.37 33.01 9.37L33.01 9.37L33.01 9.37Q32.93 9.37 31.91 13.22L31.91 13.22L31.91 13.22Q31.78 13.61 31.64 13.61L31.64 13.61L31.64 13.61Q31.26 13.61 30.74 12.31L30.74 12.31L30.74 12.31Q30.46 11.69 30.46 10.82L30.46 10.82L30.46 10.82Q30.46 9.84 30.58 9.17L30.58 9.17L30.58 9.17Q30.70 8.50 30.73 8.34L30.73 8.34L30.73 8.34Q30.76 8.18 30.83 7.82L30.83 7.82L30.83 7.82Q30.91 7.46 30.94 7.35L30.94 7.35L30.94 7.35Q31.11 6.65 31.16 6.36L31.16 6.36L31.16 6.36Q30.81 6.36 30.81 6.15L30.81 6.15L30.81 6.15Q30.81 6.05 30.90 5.94L30.90 5.94L30.90 5.94Q31.67 4.72 31.99 3.78L31.99 3.78L31.99 3.78Q32.05 3.54 32.21 3.54L32.21 3.54L32.21 3.54Q32.44 3.54 32.55 3.98L32.55 3.98L32.55 3.98Q32.66 4.41 32.66 4.73L32.66 4.73L32.66 4.73Q32.66 5.54 32.13 6.03L32.13 6.03L32.13 6.03Q31.50 9.94 31.50 10.14L31.50 10.14L31.50 10.14Q31.50 10.33 31.56 10.33L31.56 10.33L31.56 10.33Q31.61 10.33 31.76 10.07L31.76 10.07L31.76 10.07Q31.91 9.81 32.23 9.08L32.23 9.08L32.23 9.08Q32.55 8.34 32.76 7.99L32.76 7.99L32.76 7.99Q33.07 7.48 33.54 7.48L33.54 7.48L33.54 7.48Q34.30 7.48 34.30 8.89L34.30 8.89L34.30 8.89Q34.30 10.04 33.77 11.79L33.77 11.79L33.77 11.79Q33.75 11.84 33.75 11.90L33.75 11.90L33.75 11.90Q33.75 12.05 33.90 12.05L33.90 12.05L33.90 12.05Q34.05 12.05 34.42 11.65L34.42 11.65L34.42 11.65Q34.79 11.24 34.87 11.24L34.87 11.24L34.87 11.24Q34.94 11.24 34.94 11.77ZM39.48 11.89L39.48 11.89L39.48 11.89Q39.48 14.01 37.32 14.01L37.32 14.01L37.32 14.01Q36.43 14.01 36.02 13.55L36.02 13.55L36.02 13.55Q35.60 13.09 35.29 12.14L35.29 12.14L35.29 12.14Q35.18 11.77 35.18 11.36L35.18 11.36L35.18 11.36Q35.18 10.95 35.55 10.25L35.55 10.25L35.55 10.25Q35.92 9.56 36.37 9.04L36.37 9.04L36.37 9.04Q36.43 8.27 36.72 8.27L36.72 8.27L36.72 8.27Q36.88 8.27 36.93 8.46L36.93 8.46L36.93 8.46Q37.23 8.19 37.65 7.94L37.65 7.94L37.65 7.94Q38.07 7.69 38.40 7.69L38.40 7.69L38.40 7.69Q38.74 7.69 39.09 8.08L39.09 8.08L39.09 8.08Q39.45 8.47 39.45 8.88L39.45 8.88L39.45 8.88Q39.45 9.30 38.88 10.01L38.88 10.01L38.88 10.01Q37.80 11.35 37.18 11.35L37.18 11.35L37.18 11.35Q36.74 11.35 36.48 10.61L36.48 10.61L36.48 10.61Q36.47 10.64 36.35 10.84L36.35 10.84L36.35 10.84Q36.23 11.05 36.18 11.14L36.18 11.14L36.18 11.14Q36.13 11.24 36.05 11.41L36.05 11.41L36.05 11.41Q35.91 11.73 35.91 11.98L35.91 11.98L35.91 11.98Q35.91 12.56 36.48 12.56L36.48 12.56L36.48 12.56Q37.44 12.56 38.10 12.16L38.10 12.16L38.10 12.16Q38.77 11.76 39.42 10.95L39.42 10.95L39.42 10.95Q39.48 11.56 39.48 11.89ZM37.20 10.19L37.20 10.19Q37.42 10.19 37.86 9.65L37.86 9.65L37.86 9.65Q38.30 9.10 38.30 8.90L38.30 8.90L38.30 8.90Q38.30 8.69 38.16 8.69L38.16 8.69L38.16 8.69Q38.01 8.69 37.65 9.06L37.65 9.06L37.65 9.06Q37.30 9.42 37.09 9.69L37.09 9.69L37.09 9.69Q37.06 9.86 37.06 9.94L37.06 9.94L37.06 9.94Q37.06 10.19 37.20 10.19L37.20 10.19ZM43.37 7.64L43.37 7.64L43.33 8.05L43.33 8.05Q43.33 8.27 43.46 8.27L43.46 8.27L43.46 8.27Q43.51 8.27 43.58 8.20L43.58 8.20L43.58 8.20Q44.07 7.71 44.63 6.44L44.63 6.44L44.63 6.44Q45.19 5.17 45.77 4.10L45.77 4.10L45.77 4.10Q45.92 3.78 46.19 3.78L46.19 3.78L46.19 3.78Q46.45 3.78 46.60 3.98L46.60 3.98L46.60 3.98Q46.75 4.17 46.75 4.42L46.75 4.42L46.75 4.42Q46.75 4.66 46.61 4.84L46.61 4.84L46.61 4.84Q45.75 6.13 44.84 9.07L44.84 9.07L44.84 9.07Q45.44 8.85 46.12 8.23L46.12 8.23L46.12 8.23Q46.38 8.01 46.70 8.01L46.70 8.01L46.70 8.01Q47.01 8.01 47.44 8.27L47.44 8.27L47.44 8.27Q47.87 8.53 47.87 8.84L47.87 8.84L47.87 8.84Q47.87 9.16 47.31 9.55L47.31 9.55L47.31 9.55Q46.76 9.94 46.26 10.18L46.26 10.18L46.26 10.18Q46.86 10.98 47.13 11.70L47.13 11.70L47.13 11.70Q47.40 12.43 47.40 13.36L47.40 13.36L47.40 13.36Q47.40 15.79 45.50 18.68L45.50 18.68L45.50 18.68Q45.30 18.96 45.06 19.04L45.06 19.04L45.06 19.04Q44.81 19.12 44.49 19.12L44.49 19.12L44.49 19.12Q44.16 19.12 44.04 19.04L44.04 19.04L44.04 19.04Q43.92 18.96 43.81 18.79L43.81 18.79L43.81 18.79Q43.71 18.62 43.51 18.31L43.51 18.31L43.51 18.31Q43.30 18.00 43.20 17.82L43.20 17.82L43.20 17.82Q42.73 16.88 42.73 15.53L42.73 15.53L42.73 15.53Q42.73 14.38 42.87 13.29L42.87 13.29L42.87 13.29Q43.06 11.91 43.29 10.42L43.29 10.42L43.29 10.42Q43.08 10.16 43.08 9.89L43.08 9.89L43.08 9.89Q43.08 9.62 43.30 9.46L43.30 9.46L43.30 9.46Q42.97 8.71 42.92 8.48L42.92 8.48L42.92 8.48Q42.87 8.25 42.87 8.02L42.87 8.02L42.87 8.02Q42.87 7.27 43.13 7.27L43.13 7.27L43.13 7.27Q43.23 7.27 43.30 7.40L43.30 7.40L43.30 7.40Q43.37 7.53 43.37 7.64ZM44.41 17.71L44.41 17.71Q45.25 16.81 45.79 15.30L45.79 15.30L45.79 15.30Q46.33 13.79 46.33 12.44L46.33 12.44L46.33 12.44Q46.33 11.09 45.28 10.54L45.28 10.54L45.28 10.54Q44.83 10.65 44.39 10.71L44.39 10.71L44.39 10.71Q43.76 13.45 43.76 16.87L43.76 16.87L43.76 16.87Q43.76 17.91 44.11 17.91L44.11 17.91L44.11 17.91Q44.24 17.91 44.41 17.71L44.41 17.71ZM51.04 11.89L51.04 11.89L51.04 11.89Q49.90 13.94 49.29 13.94L49.29 13.94L49.29 13.94Q48.86 13.94 48.51 13.41L48.51 13.41L48.51 13.41Q48.41 13.27 48.30 12.97L48.30 12.97L48.30 12.97Q48.19 12.67 48.03 12.42L48.03 12.42L48.03 12.42Q47.87 12.17 47.87 11.74L47.87 11.74L47.87 11.74Q47.87 11.31 48.03 10.98L48.03 10.98L48.03 10.98Q49.18 8.71 50.46 7.87L50.46 7.87L50.46 7.87Q50.62 7.74 50.85 7.74L50.85 7.74L50.85 7.74Q51.07 7.74 51.41 7.99L51.41 7.99L51.41 7.99Q51.60 8.19 51.65 8.33L51.65 8.33L51.65 8.33Q51.72 8.64 51.72 8.71L51.72 8.71L51.72 8.71Q52.21 8.88 52.21 9.32L52.21 9.32L52.21 9.32Q52.21 9.63 52.04 10.72L52.04 10.72L52.04 10.72Q51.87 11.80 51.84 12.33L51.84 12.33L51.84 12.33Q51.84 12.63 52.04 12.63L52.04 12.63L52.04 12.63Q52.26 12.63 52.84 11.84L52.84 11.84L52.84 11.84Q53.42 11.06 53.51 11.06L53.51 11.06L53.51 11.06Q53.65 11.06 53.65 11.52L53.65 11.52L53.62 12.21L53.62 12.21Q53.62 12.60 53.27 13.28L53.27 13.28L53.27 13.28Q52.92 13.96 52.37 13.96L52.37 13.96L52.37 13.96Q52.04 13.96 51.84 13.73L51.84 13.73L51.84 13.73Q51.77 13.66 51.63 13.45L51.63 13.45L51.63 13.45Q51.20 12.82 51.04 11.89ZM51.17 8.65L51.17 8.65L51.17 8.65Q49.41 10.26 48.93 12.33L48.93 12.33L48.93 12.33Q50.34 11.12 51.17 8.65ZM57.65 12.49L57.81 12.50L57.81 12.50Q58.09 12.50 58.06 12.99L58.06 12.99L58.06 12.99Q58.06 13.15 58.09 13.23L58.09 13.23L58.09 13.23Q58.11 13.31 58.11 13.38L58.11 13.38L58.11 13.38Q58.11 13.61 57.81 13.72L57.81 13.72L57.81 13.72Q57.51 13.83 57.15 13.83L57.15 13.83L57.15 13.83Q56.78 13.83 56.39 13.40L56.39 13.40L56.39 13.40Q55.99 12.98 54.96 11.47L54.96 11.47L54.96 11.82L54.96 11.82Q54.96 12.50 55.03 12.85L55.03 12.85L55.03 12.85Q55.09 13.20 55.09 13.29L55.09 13.29L55.09 13.29Q55.09 13.75 54.56 13.75L54.56 13.75L54.56 13.75Q54.28 13.75 54.17 13.53L54.17 13.53L54.17 13.53Q54.07 13.31 53.96 12.85L53.96 12.85L53.96 12.85Q53.84 12.39 53.84 12.19L53.84 12.19L53.84 12.19Q53.84 12.00 53.91 11.63L53.91 11.63L53.91 11.63Q53.97 11.26 53.99 11.04L53.99 11.04L53.99 11.04Q54.01 10.82 54.05 10.30L54.05 10.30L54.05 10.30Q54.25 7.22 54.92 3.22L54.92 3.22L54.92 3.22Q54.87 3.00 54.87 2.82L54.87 2.82L54.87 2.82Q54.87 2.65 55.01 2.65L55.01 2.65L55.01 2.65Q55.15 2.65 55.31 2.84L55.31 2.84L55.31 2.84Q55.55 3.08 55.69 3.54L55.69 3.54L55.69 3.54Q55.83 4.00 55.83 4.28L55.83 4.28L55.83 4.28Q55.83 4.56 55.77 4.96L55.77 4.96L55.77 4.96Q55.71 5.36 55.57 6.15L55.57 6.15L55.57 6.15Q55.26 7.87 55.15 8.79L55.15 8.79L55.15 8.79Q55.17 8.76 55.34 8.60L55.34 8.60L55.34 8.60Q55.51 8.44 55.55 8.40L55.55 8.40L55.55 8.40Q55.59 8.36 55.75 8.22L55.75 8.22L55.75 8.22Q55.90 8.09 55.98 8.05L55.98 8.05L55.98 8.05Q56.06 8.01 56.20 7.92L56.20 7.92L56.20 7.92Q56.35 7.83 56.46 7.80L56.46 7.80L56.46 7.80Q56.73 7.70 56.99 7.70L56.99 7.70L56.99 7.70Q57.61 7.70 57.92 8.15L57.92 8.15L57.92 8.15Q58.23 8.60 58.23 9.25L58.23 9.25L58.23 9.25Q58.23 9.70 58.10 9.93L58.10 9.93L58.10 9.93Q57.97 10.16 57.90 10.28L57.90 10.28L57.90 10.28Q57.83 10.40 57.67 10.54L57.67 10.54L57.41 10.75L57.41 10.75Q57.23 10.91 56.71 11.16L56.71 11.16L56.71 11.16Q56.20 11.41 56.12 11.46L56.12 11.46L56.12 11.46Q56.04 11.51 56.04 11.56L56.04 11.56L56.04 11.56Q56.04 11.61 56.11 11.68L56.11 11.68L56.11 11.68Q56.81 12.38 57.65 12.49L57.65 12.49ZM57.16 8.88L57.16 8.88L57.16 8.88Q56.35 9.24 55.64 10.05L55.64 10.05L55.64 10.05Q56.46 9.80 57.16 8.88ZM62.80 11.89L62.80 11.89L62.80 11.89Q62.80 14.01 60.65 14.01L60.65 14.01L60.65 14.01Q59.75 14.01 59.34 13.55L59.34 13.55L59.34 13.55Q58.93 13.09 58.62 12.14L58.62 12.14L58.62 12.14Q58.51 11.77 58.51 11.36L58.51 11.36L58.51 11.36Q58.51 10.95 58.88 10.25L58.88 10.25L58.88 10.25Q59.25 9.56 59.70 9.04L59.70 9.04L59.70 9.04Q59.75 8.27 60.05 8.27L60.05 8.27L60.05 8.27Q60.20 8.27 60.26 8.46L60.26 8.46L60.26 8.46Q60.55 8.19 60.97 7.94L60.97 7.94L60.97 7.94Q61.39 7.69 61.73 7.69L61.73 7.69L61.73 7.69Q62.06 7.69 62.42 8.08L62.42 8.08L62.42 8.08Q62.78 8.47 62.78 8.88L62.78 8.88L62.78 8.88Q62.78 9.30 62.20 10.01L62.20 10.01L62.20 10.01Q61.12 11.35 60.51 11.35L60.51 11.35L60.51 11.35Q60.06 11.35 59.81 10.61L59.81 10.61L59.81 10.61Q59.79 10.64 59.67 10.84L59.67 10.84L59.67 10.84Q59.56 11.05 59.51 11.14L59.51 11.14L59.51 11.14Q59.46 11.24 59.37 11.41L59.37 11.41L59.37 11.41Q59.23 11.73 59.23 11.98L59.23 11.98L59.23 11.98Q59.23 12.56 59.81 12.56L59.81 12.56L59.81 12.56Q60.76 12.56 61.42 12.16L61.42 12.16L61.42 12.16Q62.09 11.76 62.75 10.95L62.75 10.95L62.75 10.95Q62.80 11.56 62.80 11.89ZM60.52 10.19L60.52 10.19Q60.75 10.19 61.19 9.65L61.19 9.65L61.19 9.65Q61.63 9.10 61.63 8.90L61.63 8.90L61.63 8.90Q61.63 8.69 61.48 8.69L61.48 8.69L61.48 8.69Q61.33 8.69 60.98 9.06L60.98 9.06L60.98 9.06Q60.62 9.42 60.41 9.69L60.41 9.69L60.41 9.69Q60.38 9.86 60.38 9.94L60.38 9.94L60.38 9.94Q60.38 10.19 60.52 10.19L60.52 10.19Z"></path></g><!----><!----></svg>